HIERARCHY
ROOT root
{
	OFFSET 0.000000 0.000000 0.000000
	CHANNELS 6 Xposition Yposition Zposition Zrotation Yrotation Xrotation
	JOINT lhip
	{
		OFFSET 0.058581 -0.082280 -0.017664
		CHANNELS 3 Zrotation Yrotation Xrotation
		JOINT lknee
		{
			OFFSET 0.043451 -0.386469 0.008037
			CHANNELS 3 Zrotation Yrotation Xrotation
			JOINT lankle
			{
				OFFSET -0.014790 -0.426874 -0.037428
				CHANNELS 3 Zrotation Yrotation Xrotation
				JOINT ltoe
				{
					OFFSET 0.041054 -0.060286 0.122042
					CHANNELS 3 Zrotation Yrotation Xrotation
					End Site
					{
						OFFSET 0.000000 0.000000 0.000000
					}
				}
			}
		}
	}
	JOINT rhip
	{
		OFFSET -0.060310 -0.090513 -0.013543
		CHANNELS 3 Zrotation Yrotation Xrotation
		JOINT rknee
		{
			OFFSET -0.043257 -0.383688 -0.004843
			CHANNELS 3 Zrotation Yrotation Xrotation
			JOINT rankle
			{
				OFFSET 0.019056 -0.420046 -0.034562
				CHANNELS 3 Zrotation Yrotation Xrotation
				JOINT rtoe
				{
					OFFSET -0.034840 -0.062106 0.130323
					CHANNELS 3 Zrotation Yrotation Xrotation
					End Site
					{
						OFFSET 0.000000 0.000000 0.000000
					}
				}
			}
		}
	}
	JOINT lowerback
	{
		OFFSET 0.004439 0.124404 -0.038385
		CHANNELS 3 Zrotation Yrotation Xrotation
		JOINT upperback
		{
			OFFSET 0.004488 0.137956 0.026820
			CHANNELS 3 Zrotation Yrotation Xrotation
			JOINT chest
			{
				OFFSET -0.002265 0.056032 0.002855
				CHANNELS 3 Zrotation Yrotation Xrotation
				JOINT lowerneck
				{
					OFFSET -0.013390 0.211636 -0.033468
					CHANNELS 3 Zrotation Yrotation Xrotation
					JOINT upperneck
					{
						OFFSET 0.010113 0.088937 0.050410
						CHANNELS 3 Zrotation Yrotation Xrotation
						End Site
						{
							OFFSET 0.000000 0.000000 0.000000
						}
					}
				}
				JOINT lclavicle
				{
					OFFSET 0.071702 0.114000 -0.018898
					CHANNELS 3 Zrotation Yrotation Xrotation
					JOINT lshoulder
					{
						OFFSET 0.122921 0.045205 -0.019046
						CHANNELS 3 Zrotation Yrotation Xrotation
						JOINT lelbow
						{
							OFFSET 0.255332 -0.015649 -0.022946
							CHANNELS 3 Zrotation Yrotation Xrotation
							JOINT lwrist
							{
								OFFSET 0.265709 0.012698 -0.007375
								CHANNELS 3 Zrotation Yrotation Xrotation
								End Site
								{
									OFFSET 0.000000 0.000000 0.000000
								}
							}
						}
					}
				}
				JOINT rclavicle
				{
					OFFSET -0.082954 0.112472 -0.023707
					CHANNELS 3 Zrotation Yrotation Xrotation
					JOINT rshoulder
					{
						OFFSET -0.113228 0.046853 -0.008472
						CHANNELS 3 Zrotation Yrotation Xrotation
						JOINT relbow
						{
							OFFSET -0.260127 -0.014369 -0.031269
							CHANNELS 3 Zrotation Yrotation Xrotation
							JOINT rwrist
							{
								OFFSET -0.269108 0.006794 -0.006027
								CHANNELS 3 Zrotation Yrotation Xrotation
								End Site
								{
									OFFSET 0.000000 0.000000 0.000000
								}
							}
						}
					}
				}
			}
		}
	}
}
MOTION
Frames: 17
Frame Time: 0.033333
0.291571 0.809121 0.722981 91.680792 3.114154 78.257822 14.663976 1.355632 -37.282746 -16.153549 -3.231109 91.402410 -3.597127 13.583385 -48.776016 0.000000 -0.000000 0.000000 -10.726304 -4.980346 -34.052865 8.933383 -1.586179 91.463705 9.050865 -11.229143 -41.578728 0.000000 -0.000000 0.000000 1.325680 1.069816 37.147813 2.395090 -6.418573 -4.287733 2.248639 -0.480398 4.233658 0.580463 8.682539 -18.379248 4.152076 -4.028628 -12.456971 26.628779 -39.880911 -25.224584 2.720835 -27.895269 -18.668037 -2.181209 -3.327789 -3.292241 2.756919 -14.370032 4.578807 -19.079607 37.701047 -25.458642 -3.600332 40.052460 -28.343383 -3.204883 9.973408 2.893298 6.604798 5.280907 14.731034 
0.291997 0.809206 0.722524 91.612511 3.114792 78.196599 14.738675 1.276649 -37.161295 -16.051290 -3.119226 91.435231 -3.586361 13.456494 -48.964056 0.000000 -0.000000 0.000000 -10.751581 -4.981193 -33.989473 9.101146 -1.602001 91.591391 8.966608 -11.303793 -41.503443 0.000000 -0.000000 0.000000 1.293717 1.213857 37.081227 2.497816 -6.386220 -4.125322 2.261696 -0.487065 3.963671 0.660219 8.671687 -17.842448 4.064305 -3.976285 -13.069606 26.326783 -40.157425 -25.021810 3.179959 -27.753885 -18.959880 -2.525650 -3.350632 -3.330386 2.165354 -14.501570 5.375053 -19.096910 37.602592 -25.223955 -3.476868 40.092616 -28.421139 -3.517377 10.213076 3.069697 7.279851 5.087642 14.778267 
0.292584 0.809207 0.721920 91.472437 3.113552 78.163307 14.748159 1.274002 -37.012408 -15.977042 -3.065330 91.480496 -3.661894 13.542394 -49.054321 0.000000 -0.000000 0.000000 -10.790163 -4.932765 -33.989696 9.033329 -1.622461 91.645017 8.927156 -11.237658 -41.589502 0.000000 -0.000000 0.000000 1.236297 1.278136 36.920895 2.510375 -6.367497 -4.080532 2.234619 -0.468948 4.055844 0.628283 9.001310 -17.498087 4.218737 -3.936399 -13.566906 26.400939 -40.125563 -25.076279 3.228581 -27.891634 -18.858439 -2.482543 -3.102272 -3.458560 2.161650 -14.421409 5.428456 -19.149263 37.623524 -25.490678 -3.414068 40.304131 -28.183783 -3.558982 10.021994 2.947199 7.085356 5.279326 14.709076 
0.292230 0.809485 0.721039 91.581823 3.241372 78.120060 14.694336 1.332588 -37.125753 -16.092665 -3.223183 91.763715 -3.617074 13.668870 -49.189317 0.000000 -0.000000 0.000000 -10.750821 -5.047398 -34.013078 9.238493 -1.679816 91.693177 8.911131 -11.350419 -41.692470 0.000000 -0.000000 0.000000 1.275415 1.102021 36.898442 2.557075 -6.462636 -4.177243 2.216833 -0.661107 4.239650 0.748819 9.356092 -18.165594 3.959110 -3.602361 -12.959415 26.203794 -40.117693 -25.002358 3.710534 -27.616169 -19.142675 -2.887215 -2.992687 -3.395948 2.411665 -14.536796 5.571356 -19.044706 37.896211 -25.132527 -4.267240 40.508649 -28.811469 -3.359602 9.854960 2.625209 6.874379 5.286945 14.794012 
0.292070 0.809930 0.720623 91.557818 3.196240 77.999478 14.692741 1.187719 -37.061451 -16.000279 -3.098157 91.862838 -3.576281 13.687675 -49.213993 0.000000 -0.000000 0.000000 -10.834638 -5.028223 -33.944411 9.209606 -1.680079 91.815602 9.012930 -11.304400 -41.711532 0.000000 -0.000000 0.000000 1.286883 1.229083 37.183273 2.579810 -6.500458 -4.224516 2.248524 -0.689675 4.036252 0.815990 8.328333 -18.432956 3.831971 -4.648074 -12.072033 26.106919 -40.264369 -25.035443 3.785707 -27.632994 -19.452961 -2.945646 -3.070050 -3.389823 1.815759 -14.087179 6.169612 -19.264298 37.829607 -25.384149 -3.855389 40.340587 -28.744644 -3.407134 10.183862 2.746285 7.539511 4.959707 14.794083 
0.291619 0.810643 0.719906 91.529325 3.189970 77.942191 14.733446 1.133031 -37.221242 -15.966061 -2.966439 92.168582 -3.652496 13.705386 -49.313963 0.000000 -0.000000 0.000000 -10.858405 -5.003300 -34.005319 9.182557 -1.687021 92.083487 8.987893 -11.226248 -41.690775 0.000000 -0.000000 0.000000 1.272527 1.254623 37.354690 2.597167 -6.517525 -4.367614 2.294721 -0.690526 3.660038 0.809323 7.903430 -18.182576 3.632576 -4.686116 -11.592451 25.918820 -40.519683 -24.695749 3.366162 -27.471534 -19.299596 -2.624481 -3.200315 -3.339986 1.737065 -13.971741 6.061836 -19.158054 38.105816 -24.953317 -3.669292 40.031334 -28.824898 -3.609138 10.534407 2.965528 7.982003 4.831641 14.563240 
0.291790 0.810406 0.719185 91.519585 3.201927 78.013473 14.704222 1.145249 -37.309317 -15.957055 -2.991442 92.238429 -3.626294 13.632756 -49.288936 0.000000 -0.000000 0.000000 -10.864989 -4.899746 -34.123601 9.154001 -1.720444 92.165338 9.018326 -11.245534 -41.703805 0.000000 -0.000000 0.000000 1.164801 1.281737 37.120279 2.530168 -6.524308 -4.152638 2.188013 -0.635655 3.937309 0.788919 8.720246 -17.602023 4.162777 -4.099966 -13.445938 26.257384 -40.364921 -25.075883 3.657438 -27.814522 -19.234826 -2.899717 -3.040813 -3.432664 1.643708 -13.852483 6.064685 -19.093359 37.693718 -25.522526 -3.317085 40.328917 -28.132784 -3.565006 10.652937 2.946222 7.708950 4.802588 14.508827 
0.291889 0.810245 0.718760 91.457082 3.281715 77.970521 14.725416 1.217624 -37.209631 -15.930591 -3.074890 92.217067 -3.710432 13.610409 -49.366463 0.000000 -0.000000 0.000000 -10.775862 -4.812381 -34.102549 9.068120 -1.710387 92.187588 8.992723 -11.129448 -41.734443 0.000000 -0.000000 0.000000 1.157008 1.247312 36.983620 2.474268 -6.430996 -3.814206 2.118247 -0.578796 4.357812 0.532876 9.277379 -17.593870 4.374168 -3.876037 -14.670940 26.837521 -39.786192 -25.600235 3.134961 -28.176412 -18.833800 -2.461219 -3.496935 -3.159319 1.623681 -13.742990 5.608952 -19.358410 37.039677 -26.256615 -2.947260 40.715699 -27.785706 -3.473857 10.798069 3.188572 7.651307 4.654223 14.209775 
0.292035 0.810070 0.718296 91.376021 3.303886 77.929742 14.788775 1.270745 -37.131366 -15.984513 -3.048921 92.242082 -3.766221 13.541825 -49.370696 0.000000 -0.000000 0.000000 -10.724867 -4.711925 -34.077320 9.134594 -1.680149 92.277525 9.081208 -11.115664 -41.756233 0.000000 -0.000000 0.000000 1.097610 1.360673 37.040871 2.479706 -6.457821 -3.732700 2.183811 -0.546831 4.265512 0.611906 9.263585 -17.546670 4.455886 -3.906003 -14.943988 26.733407 -40.093834 -25.721974 3.493498 -27.942755 -18.676034 -3.162808 -3.659992 -3.109709 2.143942 -14.274092 5.828912 -19.288079 37.225800 -26.339201 -3.021921 40.490129 -27.591967 -3.237834 10.850680 3.345836 7.376770 4.904045 14.679546 
0.291313 0.810802 0.717507 91.487231 3.281396 77.783009 14.781449 1.085012 -37.256716 -15.974854 -2.899967 92.485586 -3.645270 13.711582 -49.339615 0.000000 -0.000000 0.000000 -10.810196 -4.759394 -34.086544 9.178410 -1.715576 92.482235 9.051400 -11.346526 -41.880999 0.000000 -0.000000 0.000000 1.142470 1.228329 37.406409 2.512962 -6.508089 -4.124059 2.254775 -0.745590 3.663005 1.068556 8.495642 -18.035950 3.798577 -4.009577 -12.772825 25.404344 -40.878353 -24.621873 3.695210 -27.339093 -18.997504 -3.024018 -4.184757 -2.816582 1.506430 -14.139530 6.735836 -18.877081 38.126202 -25.138696 -3.446679 40.041694 -27.960495 -3.179207 11.030563 3.522718 7.865001 4.587672 14.879719 
0.291284 0.810615 0.716952 91.463991 3.341619 77.814115 14.829692 1.157165 -37.437211 -15.946771 -2.929065 92.700659 -3.642592 13.674226 -49.419137 0.000000 -0.000000 0.000000 -10.795890 -4.683559 -34.199364 9.071508 -1.841874 92.562146 9.082740 -11.309784 -42.039867 0.000000 -0.000000 0.000000 1.172375 1.138597 37.337774 2.473021 -6.416137 -4.191523 2.160782 -0.672103 3.689279 1.112784 8.662689 -18.016711 3.982270 -3.787036 -12.947071 25.192436 -40.989840 -24.565545 3.852952 -27.510854 -18.902990 -3.294749 -4.160532 -2.705690 1.983769 -14.502276 6.717791 -18.619373 38.113754 -25.009336 -3.481073 39.955771 -27.823636 -2.985243 11.084567 3.707062 7.578457 4.910669 14.915787 
0.290908 0.810805 0.716570 91.470976 3.321498 77.822208 14.837751 1.094636 -37.605785 -15.903647 -2.816736 92.825297 -3.631670 13.631530 -49.490063 0.000000 -0.000000 0.000000 -10.800667 -4.809910 -34.299467 8.980664 -1.780429 92.645932 9.085079 -11.254090 -42.111700 0.000000 -0.000000 0.000000 1.134565 1.188718 37.339061 2.526230 -6.425186 -4.237595 2.204432 -0.680496 3.729460 1.091430 8.581937 -17.942378 3.880927 -3.884099 -12.567829 25.279584 -40.805433 -24.647023 3.552537 -27.729761 -18.824155 -3.218456 -4.087920 -2.591267 1.700061 -14.391629 6.714379 -18.611644 38.020364 -25.004346 -3.481116 40.032025 -27.902597 -3.007909 11.059812 3.802229 8.213404 4.963250 14.753012 
0.290443 0.811040 0.716226 91.504840 3.350145 77.782530 14.757428 1.162939 -37.705836 -15.897049 -2.926220 92.980760 -3.593999 13.671576 -49.483772 0.000000 -0.000000 0.000000 -10.786254 -4.930356 -34.354992 9.093133 -1.749442 92.780222 9.079953 -11.230835 -41.937502 0.000000 -0.000000 0.000000 1.168094 1.143147 37.454875 2.539436 -6.430202 -4.382234 2.213577 -0.656333 3.672775 1.073049 8.399796 -18.066186 3.789285 -4.005800 -11.963043 25.203388 -40.727535 -24.576700 3.353104 -28.012822 -18.927183 -2.979006 -3.836733 -2.421311 1.321744 -14.253666 6.788808 -18.512897 38.151866 -24.784912 -3.571107 39.978402 -28.087518 -3.059358 10.979228 3.957457 8.733740 5.075049 14.736342 
0.289876 0.811469 0.716152 91.433949 3.296476 77.636939 14.772571 1.039792 -37.525716 -15.748860 -2.793673 92.960457 -3.672579 14.059747 -49.418201 0.000000 -0.000000 0.000000 -10.893999 -4.849580 -34.248749 9.079389 -1.735221 92.714596 9.097000 -11.289662 -42.064158 0.000000 -0.000000 0.000000 1.145111 1.214671 37.557568 2.543051 -6.406921 -4.303593 2.210907 -0.745613 3.707396 1.150275 8.434330 -17.982087 3.831148 -3.953876 -11.904926 25.119307 -40.745150 -24.437165 3.349283 -27.895704 -18.931527 -2.686421 -4.057177 -2.481422 1.213917 -14.183560 6.626838 -18.492539 38.279475 -24.626758 -3.755907 39.962216 -28.241189 -3.104165 11.026793 3.797446 8.797705 5.005283 14.642913 
0.289663 0.811523 0.716274 91.462700 3.289966 77.655494 14.670979 0.980701 -37.519782 -15.768672 -2.836256 92.866078 -3.625113 13.762887 -49.425526 0.000000 -0.000000 0.000000 -10.982673 -4.854210 -34.256376 9.084073 -1.766591 92.708018 9.082485 -10.962564 -41.764977 0.000000 -0.000000 0.000000 1.151561 1.259560 37.372133 2.533331 -6.425986 -3.942252 2.063721 -0.669848 4.116679 0.949262 9.126541 -17.038827 4.290640 -3.724706 -13.971586 25.850144 -40.131185 -25.075457 3.208869 -28.371158 -18.588688 -2.637107 -4.187689 -2.666431 1.272384 -14.142227 5.859786 -18.610558 37.470691 -25.423234 -3.185195 40.500368 -27.628377 -3.167294 11.220511 3.658935 8.410692 4.885183 14.369963 
0.289419 0.811406 0.716441 91.386261 3.333738 77.658311 14.637736 1.063015 -37.448022 -15.768584 -2.936029 92.802784 -3.628699 13.847898 -49.477588 0.000000 -0.000000 0.000000 -10.865380 -4.796093 -34.299731 9.061965 -1.694650 92.641928 9.068452 -11.089583 -41.780913 0.000000 -0.000000 0.000000 1.121731 1.225359 37.294796 2.521241 -6.407164 -3.822613 2.099025 -0.635691 4.156396 0.957273 9.214469 -17.016549 4.286711 -3.662073 -14.060268 25.833224 -40.210323 -25.107248 3.471046 -28.127452 -18.558372 -2.812421 -4.414229 -2.762542 1.456447 -14.208265 6.158985 -18.608433 37.627922 -25.428420 -3.364949 40.404404 -27.627171 -3.060543 11.237149 3.462540 8.310357 4.971937 14.419575 
0.289143 0.811483 0.716563 91.309045 3.251877 77.681517 14.732673 0.932249 -37.367712 -15.674369 -2.648576 92.607878 -3.638939 14.110702 -49.327930 0.000000 -0.000000 0.000000 -10.981733 -4.774931 -34.420512 9.141279 -1.705722 92.620298 9.068751 -11.077222 -41.747855 0.000000 -0.000000 0.000000 1.057688 1.274730 37.220411 2.504823 -6.378922 -3.764350 2.082255 -0.588902 4.173622 1.052405 9.147694 -16.717932 4.225873 -3.669960 -13.871672 25.886656 -40.112212 -25.163887 3.388929 -28.218021 -18.341706 -2.710441 -4.565152 -2.785129 1.273097 -13.899492 6.043254 -18.626508 37.574691 -25.431641 -3.286344 40.372083 -27.419907 -2.956422 11.348669 3.314554 8.274460 4.842500 14.033936 
